<svg width="981" height="828" viewBox="0 0 981 828" fill="none" xmlns="http://www.w3.org/2000/svg">
<g style="mix-blend-mode:screen">
<rect width="180" height="252" transform="matrix(1 0 0 -1 35.999 261)" fill="black" stroke="white" stroke-width="2"/>
<rect width="360" height="504" transform="matrix(1 0 0 -1 251.999 765)" fill="black" stroke="white" stroke-width="2"/>
<rect width="360" height="504" transform="matrix(1 0 0 -1 593.999 675)" fill="black" stroke="white" stroke-width="2"/>
<rect width="180" height="252" transform="matrix(1 0 0 -1 197.999 297)" fill="black" stroke="white" stroke-width="2"/>
<rect width="180" height="252" transform="matrix(1 0 0 -1 791.999 549)" fill="black" stroke="white" stroke-width="2"/>
<rect width="180" height="252" transform="matrix(1 0 0 -1 17.999 747)" fill="black" stroke="white" stroke-width="2"/>
<rect width="180" height="252" transform="matrix(1 0 0 -1 179.999 819)" fill="black" stroke="white" stroke-width="2"/>
<rect width="90" height="126" transform="matrix(-4.37114e-08 1 1 4.37114e-08 593.999 693)" fill="black" stroke="white" stroke-width="2"/>
<mask id="mask0_166_4907" style="mask-type:alpha" maskUnits="userSpaceOnUse" x="17" y="8" width="957" height="812">
<rect width="180" height="252" transform="matrix(1 0 0 -1 36.001 261)" fill="black" stroke="white" stroke-width="2"/>
<rect width="360" height="504" transform="matrix(1 0 0 -1 252.001 765)" fill="black" stroke="white" stroke-width="2"/>
<rect width="360" height="504" transform="matrix(1 0 0 -1 594.001 675)" fill="black" stroke="white" stroke-width="2"/>
<rect width="180" height="252" transform="matrix(1 0 0 -1 198.001 297)" fill="black" stroke="white" stroke-width="2"/>
<rect width="180" height="252" transform="matrix(1 0 0 -1 792.001 549)" fill="black" stroke="white" stroke-width="2"/>
<rect width="180" height="252" transform="matrix(1 0 0 -1 18.001 747)" fill="black" stroke="white" stroke-width="2"/>
<rect width="180" height="252" transform="matrix(1 0 0 -1 180.001 819)" fill="black" stroke="white" stroke-width="2"/>
<rect width="90" height="126" transform="matrix(-4.37114e-08 1 1 4.37114e-08 594.001 693)" fill="black" stroke="white" stroke-width="2"/>
</mask>
<g mask="url(#mask0_166_4907)">
<path d="M81.8045 58.929H79.8375V225H58.4815V28.862H91.9205L158.798 193.247H160.765V28.862H182.121V225H148.682L81.8045 58.929ZM288.792 228.372C278.676 228.372 269.496 226.592 261.254 223.033C253.198 219.474 246.267 214.416 240.46 207.859C234.84 201.115 230.531 193.153 227.534 183.974C224.536 174.607 223.038 164.117 223.038 152.502C223.038 141.075 224.536 130.678 227.534 121.311C230.531 111.944 234.84 103.983 240.46 97.426C246.267 90.682 253.198 85.5303 261.254 81.971C269.496 78.4117 278.676 76.632 288.792 76.632C298.908 76.632 307.993 78.4117 316.049 81.971C324.291 85.5303 331.223 90.682 336.843 97.426C342.65 103.983 347.052 111.944 350.05 121.311C353.047 130.678 354.546 141.075 354.546 152.502C354.546 164.117 353.047 174.607 350.05 183.974C347.052 193.153 342.65 201.115 336.843 207.859C331.223 214.416 324.291 219.474 316.049 223.033C307.993 226.592 298.908 228.372 288.792 228.372ZM288.792 208.983C301.343 208.983 311.459 205.236 319.14 197.743C326.82 190.25 330.661 178.635 330.661 162.899V142.105C330.661 126.369 326.82 114.754 319.14 107.261C311.459 99.7677 301.343 96.021 288.792 96.021C276.24 96.021 266.124 99.7677 258.444 107.261C250.763 114.754 246.923 126.369 246.923 142.105V162.899C246.923 178.635 250.763 190.25 258.444 197.743C266.124 205.236 276.24 208.983 288.792 208.983Z" fill="white"/>
<path d="M323.331 477V280.862H394.705C412.876 280.862 426.739 285.826 436.293 295.755C445.847 305.684 450.624 319.546 450.624 337.343C450.624 355.14 445.847 369.002 436.293 378.931C426.739 388.86 412.876 393.824 394.705 393.824H346.935V477H323.331ZM346.935 373.311H394.143C404.071 373.311 411.752 370.876 417.185 366.005C422.805 360.947 425.615 353.828 425.615 344.649V330.037C425.615 320.858 422.805 313.833 417.185 308.962C411.752 303.904 404.071 301.375 394.143 301.375H346.935V373.311ZM489.011 457.892H539.591V288.168H489.011V269.06H562.071V457.892H612.651V477H489.011V457.892ZM754.446 453.396H753.322C743.955 471.38 729.062 480.372 708.643 480.372C690.846 480.372 676.89 473.722 666.774 460.421C656.845 447.12 651.881 428.481 651.881 404.502C651.881 380.523 656.845 361.884 666.774 348.583C676.89 335.282 690.846 328.632 708.643 328.632C729.062 328.632 743.955 337.624 753.322 355.608H754.446V332.004H776.926V477H754.446V453.396ZM717.354 460.421C722.412 460.421 727.189 459.765 731.685 458.454C736.181 457.143 740.115 455.269 743.487 452.834C746.859 450.211 749.482 447.12 751.355 443.561C753.416 439.814 754.446 435.506 754.446 430.635V378.369C754.446 373.498 753.416 369.283 751.355 365.724C749.482 361.977 746.859 358.886 743.487 356.451C740.115 353.828 736.181 351.861 731.685 350.55C727.189 349.239 722.412 348.583 717.354 348.583C704.241 348.583 694.031 352.611 686.725 360.666C679.606 368.534 676.047 379.025 676.047 392.138V416.866C676.047 429.979 679.606 440.564 686.725 448.619C694.031 456.487 704.241 460.421 717.354 460.421ZM934.738 332.004H957.218L885.282 508.753C883.596 512.874 881.723 516.434 879.662 519.431C877.602 522.616 875.166 525.145 872.356 527.018C869.546 529.079 866.174 530.577 862.24 531.514C858.306 532.638 853.623 533.2 848.19 533.2H826.834V514.092H860.554L876.852 474.19L818.404 332.004H841.446L865.893 392.7L887.53 447.776H888.654L910.291 392.7L934.738 332.004Z" fill="white"/>
<path d="M132.103 553.375V729H108.499V553.375H43.0265V532.862H197.576V553.375H132.103ZM297.784 551.97C291.227 551.97 286.637 550.659 284.015 548.036C281.392 545.226 280.081 541.76 280.081 537.639V533.143C280.081 529.022 281.392 525.65 284.015 523.027C286.637 520.217 291.227 518.812 297.784 518.812C304.34 518.812 308.93 520.217 311.553 523.027C314.175 525.65 315.487 529.022 315.487 533.143V537.639C315.487 541.76 314.175 545.226 311.553 548.036C308.93 550.659 304.34 551.97 297.784 551.97ZM234.278 709.892H286.544V603.112H234.278V584.004H309.024V709.892H357.918V729H234.278V709.892ZM388.156 729V584.004H408.95V600.864H410.074C412.322 595.244 415.507 590.467 419.628 586.533C423.749 582.599 429.838 580.632 437.893 580.632C446.323 580.632 452.599 582.786 456.72 587.095C460.841 591.216 463.37 596.649 464.307 603.393H465.15C467.773 596.836 471.519 591.404 476.39 587.095C481.261 582.786 488.005 580.632 496.622 580.632C508.424 580.632 516.292 584.753 520.226 592.996C524.347 601.239 526.408 613.041 526.408 628.402V729H505.614V632.055C505.614 619.691 504.303 611.167 501.68 606.484C499.245 601.613 494.655 599.178 487.911 599.178C481.916 599.178 477.046 601.145 473.299 605.079C469.552 608.826 467.679 614.633 467.679 622.501V729H446.885V632.055C446.885 619.691 445.574 611.167 442.951 606.484C440.516 601.613 436.02 599.178 429.463 599.178C423.468 599.178 418.504 601.145 414.57 605.079C410.823 608.826 408.95 614.633 408.95 622.501V729H388.156ZM628.301 732.372C617.811 732.372 608.35 730.592 599.92 727.033C591.678 723.474 584.559 718.416 578.564 711.859C572.757 705.115 568.261 697.153 565.076 687.974C561.892 678.607 560.299 668.21 560.299 656.783C560.299 645.168 561.892 634.678 565.076 625.311C568.448 615.944 573.038 607.983 578.845 601.426C584.653 594.682 591.584 589.53 599.639 585.971C607.882 582.412 616.968 580.632 626.896 580.632C636.638 580.632 645.442 582.412 653.31 585.971C661.366 589.53 668.203 594.495 673.823 600.864C679.443 607.046 683.752 614.446 686.749 623.063C689.747 631.68 691.245 641.141 691.245 651.444V662.122H583.903V668.866C583.903 675.235 584.934 681.136 586.994 686.569C589.055 692.002 591.959 696.685 595.705 700.619C599.639 704.553 604.323 707.644 609.755 709.892C615.375 711.953 621.557 712.983 628.301 712.983C638.043 712.983 646.473 710.735 653.591 706.239C660.71 701.743 666.143 695.561 669.889 687.693L686.468 698.933C682.16 708.674 674.947 716.73 664.831 723.099C654.903 729.281 642.726 732.372 628.301 732.372ZM626.896 599.178C620.714 599.178 615.001 600.302 609.755 602.55C604.51 604.798 599.92 607.889 595.986 611.823C592.24 615.757 589.242 620.44 586.994 625.873C584.934 631.118 583.903 636.926 583.903 643.295V645.262H667.079V642.171C667.079 635.802 666.049 629.994 663.988 624.749C662.115 619.504 659.399 615.008 655.839 611.261C652.467 607.327 648.252 604.33 643.194 602.269C638.324 600.208 632.891 599.178 626.896 599.178Z" fill="white"/>
</g>
<path d="M38.25 6.75C36 4.5 36 0 36 0C36 0 36 4.5 33.75 6.75C31.5 9 27 9 27 9C27 9 31.5 9 33.75 11.25C36 13.5 36 18 36 18C36 18 36 13.5 38.25 11.25C40.5 9 45 9 45 9C45 9 40.5 9 38.25 6.75Z" fill="white"/>
<path d="M218.25 6.75C216 4.5 216 0 216 0C216 0 216 4.5 213.75 6.75C211.5 9 207 9 207 9C207 9 211.5 9 213.75 11.25C216 13.5 216 18 216 18C216 18 216 13.5 218.25 11.25C220.5 9 225 9 225 9C225 9 220.5 9 218.25 6.75Z" fill="white"/>
<path d="M200.25 42.75C198 40.5 198 36 198 36C198 36 198 40.5 195.75 42.75C193.5 45 189 45 189 45C189 45 193.5 45 195.75 47.25C198 49.5 198 54 198 54C198 54 198 49.5 200.25 47.25C202.5 45 207 45 207 45C207 45 202.5 45 200.25 42.75Z" fill="white"/>
<path d="M200.25 294.75C198 292.5 198 288 198 288C198 288 198 292.5 195.75 294.75C193.5 297 189 297 189 297C189 297 193.5 297 195.75 299.25C198 301.5 198 306 198 306C198 306 198 301.5 200.25 299.25C202.5 297 207 297 207 297C207 297 202.5 297 200.25 294.75Z" fill="white"/>
<path d="M38.25 258.75C36 256.5 36 252 36 252C36 252 36 256.5 33.75 258.75C31.5 261 27 261 27 261C27 261 31.5 261 33.75 263.25C36 265.5 36 270 36 270C36 270 36 265.5 38.25 263.25C40.5 261 45 261 45 261C45 261 40.5 261 38.25 258.75Z" fill="white"/>
<path d="M380.25 42.75C378 40.5 378 36 378 36C378 36 378 40.5 375.75 42.75C373.5 45 369 45 369 45C369 45 373.5 45 375.75 47.25C378 49.5 378 54 378 54C378 54 378 49.5 380.25 47.25C382.5 45 387 45 387 45C387 45 382.5 45 380.25 42.75Z" fill="white"/>
<path d="M596.25 168.75C594 166.5 594 162 594 162C594 162 594 166.5 591.75 168.75C589.5 171 585 171 585 171C585 171 589.5 171 591.75 173.25C594 175.5 594 180 594 180C594 180 594 175.5 596.25 173.25C598.5 171 603 171 603 171C603 171 598.5 171 596.25 168.75Z" fill="white"/>
<path d="M956.25 168.75C954 166.5 954 162 954 162C954 162 954 166.5 951.75 168.75C949.5 171 945 171 945 171C945 171 949.5 171 951.75 173.25C954 175.5 954 180 954 180C954 180 954 175.5 956.25 173.25C958.5 171 963 171 963 171C963 171 958.5 171 956.25 168.75Z" fill="white"/>
<path d="M596.25 672.75C594 670.5 594 666 594 666C594 666 594 670.5 591.75 672.75C589.5 675 585 675 585 675C585 675 589.5 675 591.75 677.25C594 679.5 594 684 594 684C594 684 594 679.5 596.25 677.25C598.5 675 603 675 603 675C603 675 598.5 675 596.25 672.75Z" fill="white"/>
<path d="M596.25 690.75C594 688.5 594 684 594 684C594 684 594 688.5 591.75 690.75C589.5 693 585 693 585 693C585 693 589.5 693 591.75 695.25C594 697.5 594 702 594 702C594 702 594 697.5 596.25 695.25C598.5 693 603 693 603 693C603 693 598.5 693 596.25 690.75Z" fill="white"/>
<path d="M722.25 690.75C720 688.5 720 684 720 684C720 684 720 688.5 717.75 690.75C715.5 693 711 693 711 693C711 693 715.5 693 717.75 695.25C720 697.5 720 702 720 702C720 702 720 697.5 722.25 695.25C724.5 693 729 693 729 693C729 693 724.5 693 722.25 690.75Z" fill="white"/>
<path d="M596.25 780.75C594 778.5 594 774 594 774C594 774 594 778.5 591.75 780.75C589.5 783 585 783 585 783C585 783 589.5 783 591.75 785.25C594 787.5 594 792 594 792C594 792 594 787.5 596.25 785.25C598.5 783 603 783 603 783C603 783 598.5 783 596.25 780.75Z" fill="white"/>
<path d="M722.25 780.75C720 778.5 720 774 720 774C720 774 720 778.5 717.75 780.75C715.5 783 711 783 711 783C711 783 715.5 783 717.75 785.25C720 787.5 720 792 720 792C720 792 720 787.5 722.25 785.25C724.5 783 729 783 729 783C729 783 724.5 783 722.25 780.75Z" fill="white"/>
<path d="M956.25 672.75C954 670.5 954 666 954 666C954 666 954 670.5 951.75 672.75C949.5 675 945 675 945 675C945 675 949.5 675 951.75 677.25C954 679.5 954 684 954 684C954 684 954 679.5 956.25 677.25C958.5 675 963 675 963 675C963 675 958.5 675 956.25 672.75Z" fill="white"/>
<path d="M794.25 294.75C792 292.5 792 288 792 288C792 288 792 292.5 789.75 294.75C787.5 297 783 297 783 297C783 297 787.5 297 789.75 299.25C792 301.5 792 306 792 306C792 306 792 301.5 794.25 299.25C796.5 297 801 297 801 297C801 297 796.5 297 794.25 294.75Z" fill="white"/>
<path d="M974.25 294.75C972 292.5 972 288 972 288C972 288 972 292.5 969.75 294.75C967.5 297 963 297 963 297C963 297 967.5 297 969.75 299.25C972 301.5 972 306 972 306C972 306 972 301.5 974.25 299.25C976.5 297 981 297 981 297C981 297 976.5 297 974.25 294.75Z" fill="white"/>
<path d="M794.25 546.75C792 544.5 792 540 792 540C792 540 792 544.5 789.75 546.75C787.5 549 783 549 783 549C783 549 787.5 549 789.75 551.25C792 553.5 792 558 792 558C792 558 792 553.5 794.25 551.25C796.5 549 801 549 801 549C801 549 796.5 549 794.25 546.75Z" fill="white"/>
<path d="M974.25 546.75C972 544.5 972 540 972 540C972 540 972 544.5 969.75 546.75C967.5 549 963 549 963 549C963 549 967.5 549 969.75 551.25C972 553.5 972 558 972 558C972 558 972 553.5 974.25 551.25C976.5 549 981 549 981 549C981 549 976.5 549 974.25 546.75Z" fill="white"/>
<path d="M20.25 492.75C18 490.5 18 486 18 486C18 486 18 490.5 15.75 492.75C13.5 495 9 495 9 495C9 495 13.5 495 15.75 497.25C18 499.5 18 504 18 504C18 504 18 499.5 20.25 497.25C22.5 495 27 495 27 495C27 495 22.5 495 20.25 492.75Z" fill="white"/>
<path d="M200.25 492.75C198 490.5 198 486 198 486C198 486 198 490.5 195.75 492.75C193.5 495 189 495 189 495C189 495 193.5 495 195.75 497.25C198 499.5 198 504 198 504C198 504 198 499.5 200.25 497.25C202.5 495 207 495 207 495C207 495 202.5 495 200.25 492.75Z" fill="white"/>
<path d="M182.25 816.75C180 814.5 180 810 180 810C180 810 180 814.5 177.75 816.75C175.5 819 171 819 171 819C171 819 175.5 819 177.75 821.25C180 823.5 180 828 180 828C180 828 180 823.5 182.25 821.25C184.5 819 189 819 189 819C189 819 184.5 819 182.25 816.75Z" fill="white"/>
<path d="M362.25 816.75C360 814.5 360 810 360 810C360 810 360 814.5 357.75 816.75C355.5 819 351 819 351 819C351 819 355.5 819 357.75 821.25C360 823.5 360 828 360 828C360 828 360 823.5 362.25 821.25C364.5 819 369 819 369 819C369 819 364.5 819 362.25 816.75Z" fill="white"/>
<path d="M362.25 564.75C360 562.5 360 558 360 558C360 558 360 562.5 357.75 564.75C355.5 567 351 567 351 567C351 567 355.5 567 357.75 569.25C360 571.5 360 576 360 576C360 576 360 571.5 362.25 569.25C364.5 567 369 567 369 567C369 567 364.5 567 362.25 564.75Z" fill="white"/>
<path d="M20.25 744.75C18 742.5 18 738 18 738C18 738 18 742.5 15.75 744.75C13.5 747 9 747 9 747C9 747 13.5 747 15.75 749.25C18 751.5 18 756 18 756C18 756 18 751.5 20.25 749.25C22.5 747 27 747 27 747C27 747 22.5 747 20.25 744.75Z" fill="white"/>
<path d="M182.25 564.75C180 562.5 180 558 180 558C180 558 180 562.5 177.75 564.75C175.5 567 171 567 171 567C171 567 175.5 567 177.75 569.25C180 571.5 180 576 180 576C180 576 180 571.5 182.25 569.25C184.5 567 189 567 189 567C189 567 184.5 567 182.25 564.75Z" fill="white"/>
</g>
</svg>
